<svg xmlns="http://www.w3.org/2000/svg" version="1.1" xmlns:xlink="http://www.w3.org/1999/xlink" width="512" height="512" x="0" y="0" viewBox="0 0 512 512" style="enable-background:new 0 0 512 512" xml:space="preserve" class=""><g><path d="M432 0H80C35.887 0 0 35.887 0 80v280c0 44.113 35.887 80 80 80h273c11.047 0 20-8.953 20-20s-8.953-20-20-20h-73.664l-45.984-59.656 145.722-185.348 98.098 108.422a19.994 19.994 0 0 0 22.02 5.246A20.01 20.01 0 0 0 512 250V80c0-44.113-35.887-80-80-80zm40 198.086-79.168-87.504a19.97 19.97 0 0 0-15.523-6.57 20.02 20.02 0 0 0-15.032 7.629L208.16 307.664l-52.32-67.875A20.002 20.002 0 0 0 140 232h-.012a20 20 0 0 0-15.84 7.805l-44.015 57.218c-6.735 8.758-5.098 21.313 3.656 28.047 8.758 6.739 21.313 5.098 28.05-3.656l28.177-36.633L228.832 400H80c-22.055 0-40-17.945-40-40V80c0-22.055 17.945-40 40-40h352c22.055 0 40 17.945 40 40zm0 0" fill="#6b6969" opacity="1" data-original="#000000" class=""></path><path d="M140 72c-33.086 0-60 26.914-60 60s26.914 60 60 60 60-26.914 60-60-26.914-60-60-60zm0 80c-11.027 0-20-8.973-20-20s8.973-20 20-20 20 8.973 20 20-8.973 20-20 20zM468.477 302.941c-.059-.058-.118-.12-.176-.18-9.453-9.519-22.028-14.761-35.41-14.761-13.344 0-25.883 5.21-35.325 14.676l-38.613 38.086c-7.863 7.754-7.95 20.418-.191 28.281 7.754 7.863 20.418 7.953 28.281.195l25.848-25.492V456c0 11.047 8.953 20 20 20s20-8.953 20-20V344.355l24.738 25.555A19.93 19.93 0 0 0 492 376a19.939 19.939 0 0 0 13.91-5.629c7.938-7.683 8.14-20.344.457-28.281zm0 0" fill="#6b6969" opacity="1" data-original="#000000" class=""></path></g></svg>